<?xml version="1.0" encoding="UTF-8" ?>
<!DOCTYPE svg PUBLIC "-//W3C//DTD SVG 1.1//EN" "http://www.w3.org/Graphics/SVG/1.1/DTD/svg11.dtd">
<svg width="1056pt" height="1380pt" viewBox="0 0 1056 1380" version="1.1" xmlns="http://www.w3.org/2000/svg">
<g id="#000000ff">
<path fill="#000000" opacity="1.00" d=" M 259.34 0.00 L 278.62 0.00 C 282.81 1.13 287.16 1.38 291.39 2.33 C 299.35 3.69 306.88 6.66 314.50 9.21 C 315.93 10.02 317.32 10.90 318.65 11.86 C 319.11 11.90 320.04 11.98 320.51 12.02 C 321.88 12.94 323.26 13.88 324.61 14.85 C 325.06 14.93 325.94 15.08 326.38 15.15 C 332.27 19.03 338.11 23.00 343.56 27.50 C 357.19 39.51 368.82 54.32 375.33 71.40 C 376.54 73.63 377.60 75.95 378.34 78.40 C 380.66 84.80 382.10 91.51 383.16 98.24 C 383.37 98.62 383.80 99.38 384.01 99.76 C 383.90 103.04 383.80 106.36 384.60 109.57 C 386.08 117.96 383.96 126.34 383.63 134.71 C 382.00 141.71 380.92 148.87 378.33 155.61 C 377.67 158.07 376.62 160.40 375.35 162.60 C 373.81 166.84 372.09 171.12 369.22 174.66 C 369.13 175.10 368.95 175.98 368.86 176.42 C 363.79 184.30 358.43 192.11 351.63 198.61 C 344.42 206.74 335.43 212.99 326.37 218.85 C 325.93 218.92 325.06 219.08 324.62 219.15 C 323.27 220.12 321.90 221.06 320.52 221.99 C 320.05 222.03 319.10 222.11 318.62 222.15 C 317.27 223.12 315.90 224.05 314.52 224.98 C 314.04 225.02 313.09 225.10 312.61 225.14 C 310.00 226.38 307.33 227.47 304.58 228.34 C 292.43 231.98 279.76 234.55 267.03 234.00 C 258.26 234.52 249.77 231.86 241.18 230.58 C 237.91 229.84 234.89 228.24 231.55 227.76 C 229.80 226.99 228.06 226.20 226.33 225.38 C 223.21 224.58 220.48 222.84 217.54 221.60 C 208.58 216.84 199.87 211.45 192.57 204.33 C 186.49 199.95 182.72 193.25 177.13 188.41 C 177.07 187.96 176.94 187.05 176.88 186.60 C 174.34 184.77 173.35 181.60 171.14 179.44 C 171.06 178.99 170.90 178.11 170.82 177.67 C 166.73 172.25 164.05 165.92 161.66 159.60 C 158.94 152.45 156.32 145.11 155.57 137.45 C 154.09 129.44 152.69 121.20 153.96 113.07 C 153.32 99.76 156.86 86.69 161.67 74.40 C 164.03 68.07 166.78 61.79 170.83 56.33 C 170.91 55.89 171.07 55.01 171.15 54.57 C 173.24 52.32 174.48 49.41 176.81 47.38 C 176.92 46.98 177.13 46.18 177.23 45.79 C 179.66 43.65 181.50 40.98 183.68 38.62 C 188.38 32.99 194.13 28.42 199.60 23.59 C 209.31 16.22 220.31 10.76 231.60 6.27 C 236.19 5.41 240.39 3.10 245.11 2.80 C 249.82 1.73 254.64 1.14 259.34 0.00 Z" />
<path fill="#000000" opacity="1.00" d=" M 320.39 258.02 C 320.60 257.85 321.03 257.52 321.25 257.35 C 324.20 258.20 327.29 258.07 330.33 258.03 C 330.57 257.86 331.05 257.51 331.29 257.33 C 333.16 257.82 335.07 258.10 337.01 258.04 C 347.03 257.94 357.05 258.06 367.07 257.98 C 373.23 257.95 379.03 260.36 385.07 261.19 C 388.65 261.78 391.82 263.80 395.44 264.24 C 398.01 265.43 400.56 266.77 403.37 267.32 C 405.17 268.35 407.02 269.33 408.98 270.05 C 430.37 279.95 448.50 296.23 461.65 315.71 C 461.80 316.14 462.08 316.99 462.22 317.42 C 464.20 319.74 465.76 322.38 467.81 324.65 C 467.91 325.07 468.09 325.93 468.18 326.35 C 473.50 332.37 477.17 339.58 482.10 345.89 C 485.36 351.27 489.29 356.19 492.52 361.60 C 497.44 368.17 501.41 375.46 506.84 381.64 C 506.91 382.09 507.06 382.99 507.13 383.44 C 508.68 384.98 510.31 386.53 511.40 388.47 C 514.81 394.85 519.60 400.35 523.30 406.57 C 529.15 414.43 534.11 422.90 539.98 430.74 C 540.09 430.92 540.31 431.29 540.42 431.47 C 541.99 434.01 543.47 436.66 545.61 438.79 C 545.77 439.21 546.08 440.04 546.24 440.45 C 548.24 442.74 549.72 445.43 551.81 447.64 C 551.91 448.07 552.09 448.93 552.18 449.35 C 557.98 455.53 561.22 463.65 567.18 469.69 C 628.46 469.74 689.76 469.71 751.05 469.72 C 768.71 470.17 785.46 481.35 792.41 497.62 C 795.30 502.45 796.02 508.11 797.43 513.47 C 798.06 518.57 797.91 523.78 797.54 528.90 C 795.78 536.37 793.94 544.14 789.29 550.42 C 780.46 564.41 763.21 571.72 746.99 570.80 C 694.53 570.88 642.07 570.56 589.62 571.05 C 570.74 571.03 551.85 571.07 532.97 571.04 C 526.69 570.28 520.38 569.54 514.39 567.39 C 510.65 565.48 506.13 564.43 503.35 561.15 C 502.91 561.07 502.03 560.93 501.59 560.85 C 495.92 555.39 489.95 550.13 485.51 543.56 C 483.07 541.16 481.38 538.17 479.46 535.37 C 474.68 528.82 469.62 522.46 465.31 515.58 C 460.50 508.78 455.29 502.25 450.85 495.19 C 447.40 491.08 445.01 486.14 441.17 482.38 C 441.09 481.94 440.93 481.06 440.85 480.62 C 438.03 478.18 436.54 474.67 434.15 471.87 C 431.32 468.60 429.63 464.48 426.49 461.49 C 422.41 454.55 416.80 448.65 413.04 441.52 C 412.06 453.98 412.92 466.51 412.65 478.99 C 412.64 753.66 412.64 1028.32 412.65 1302.99 C 412.83 1311.75 412.17 1320.56 410.26 1329.13 C 409.44 1331.88 408.22 1334.52 407.73 1337.39 C 406.09 1340.92 404.58 1344.58 402.16 1347.68 C 402.09 1348.12 401.95 1349.01 401.88 1349.46 C 398.73 1353.13 396.23 1357.37 392.57 1360.62 C 387.53 1366.22 381.00 1370.14 374.42 1373.67 C 367.35 1376.63 359.87 1378.21 352.44 1380.00 L 339.44 1380.00 C 332.76 1378.14 325.57 1377.70 319.40 1374.35 C 312.32 1371.44 305.80 1367.03 300.48 1361.52 C 299.50 1360.48 298.49 1359.49 297.46 1358.54 C 293.58 1353.66 289.88 1348.45 287.66 1342.59 C 286.85 1340.84 286.03 1339.11 285.20 1337.40 C 284.73 1331.81 282.02 1326.65 282.00 1321.01 C 282.02 1148.01 282.03 975.01 282.00 802.00 C 273.99 802.00 265.99 801.99 257.99 802.00 C 257.97 874.32 257.99 946.64 257.98 1018.97 C 257.79 1030.31 258.48 1041.69 257.43 1053.00 C 257.64 1057.34 258.37 1061.68 257.94 1066.05 C 256.97 1072.38 258.64 1078.73 257.54 1085.07 C 258.32 1095.03 257.87 1105.04 257.98 1115.03 C 257.98 1176.02 257.98 1237.01 257.98 1298.01 C 257.64 1306.89 258.98 1315.96 256.65 1324.67 C 255.34 1329.68 254.60 1334.87 252.36 1339.60 C 249.90 1345.70 246.69 1351.54 242.54 1356.68 C 237.05 1361.13 232.30 1366.42 226.52 1370.56 C 224.79 1371.56 223.09 1372.62 221.40 1373.68 C 214.43 1376.35 207.26 1378.35 199.97 1380.00 L 185.66 1380.00 C 179.28 1378.00 172.34 1377.61 166.40 1374.36 C 153.28 1368.85 142.24 1358.74 135.14 1346.43 C 135.05 1345.98 134.88 1345.09 134.79 1344.65 C 133.84 1343.28 132.93 1341.90 132.02 1340.53 C 131.98 1340.06 131.89 1339.11 131.84 1338.63 C 129.31 1334.11 128.52 1328.94 127.11 1324.03 C 125.83 1319.80 125.92 1315.36 126.00 1311.00 C 126.05 1192.00 125.96 1072.99 126.05 953.99 C 126.10 952.27 125.74 950.62 125.28 949.00 C 126.47 945.44 125.95 941.65 126.02 937.98 C 126.00 769.85 126.04 601.71 126.00 433.58 C 119.05 433.35 112.09 433.36 105.14 433.37 C 103.63 433.18 102.86 434.70 103.14 436.01 C 103.17 544.02 103.16 652.03 103.15 760.04 C 102.78 765.38 101.78 770.77 99.36 775.60 C 94.82 787.25 85.23 796.78 73.61 801.37 C 64.36 805.82 53.70 805.79 43.67 804.97 C 43.32 804.75 42.61 804.31 42.26 804.09 C 38.49 804.38 35.11 802.72 31.79 801.20 C 24.05 798.39 17.37 793.19 12.00 787.02 C 9.90 784.27 8.37 781.12 6.16 778.44 C 6.08 777.99 5.91 777.09 5.83 776.64 C 0.61 767.68 0.56 757.04 0.87 746.99 C 0.85 688.99 0.89 630.98 0.85 572.98 C 0.35 564.67 0.14 556.32 0.93 548.02 C 1.54 542.02 0.10 536.06 0.61 530.08 C 1.13 523.39 0.76 516.69 0.87 510.00 C 0.90 469.02 0.79 428.04 0.92 387.07 C 1.65 377.95 2.89 368.78 5.62 360.02 C 6.94 352.92 10.42 346.45 12.23 339.52 C 13.10 338.13 14.00 336.76 14.92 335.41 C 14.95 334.94 15.00 333.99 15.02 333.51 C 15.97 332.13 16.92 330.75 17.88 329.39 C 17.95 328.95 18.07 328.06 18.14 327.62 C 24.97 316.58 32.35 305.80 41.43 296.46 C 43.90 293.89 46.69 291.66 49.32 289.27 C 52.02 286.82 55.50 285.22 57.60 282.15 C 58.04 282.07 58.92 281.91 59.36 281.84 C 61.53 279.62 64.38 278.28 66.64 276.17 C 67.07 276.09 67.93 275.93 68.36 275.84 C 73.35 272.26 79.08 269.96 84.57 267.29 C 88.20 266.20 91.58 264.33 95.35 263.70 C 98.13 262.64 100.95 261.61 103.90 261.09 C 110.88 259.76 117.83 257.62 125.02 257.98 C 190.15 258.03 255.27 257.97 320.39 258.02 Z" />
</g>
<g id="#ff4136ff">
<path fill="#ff4136" opacity="1.00" d=" M 573.69 340.64 C 598.98 310.18 637.38 290.95 676.98 289.31 C 697.40 288.44 718.00 291.80 737.09 299.11 C 751.94 304.97 765.76 313.64 777.00 325.02 C 785.42 333.38 792.14 343.31 797.66 353.77 C 797.82 353.79 798.15 353.84 798.32 353.86 C 806.30 338.21 817.68 324.17 831.97 313.85 C 849.53 300.95 870.68 293.54 892.16 290.60 C 923.98 285.98 957.28 292.55 984.89 309.03 C 1003.84 320.04 1020.11 335.59 1032.17 353.87 C 1046.95 376.39 1055.06 403.14 1055.68 430.05 C 1056.82 453.91 1052.12 477.75 1044.22 500.19 C 1036.17 522.89 1024.68 544.25 1011.25 564.20 C 990.49 594.76 965.48 622.34 938.00 646.99 C 931.55 652.88 925.17 658.87 918.33 664.30 C 909.30 671.64 900.56 679.35 891.12 686.17 C 881.16 693.51 871.47 701.26 861.16 708.12 C 852.63 713.91 844.18 719.80 835.62 725.54 C 824.34 732.63 813.04 739.71 801.75 746.79 C 799.31 748.46 795.92 748.13 793.60 746.41 C 782.56 739.44 771.44 732.59 760.43 725.58 C 749.73 718.27 738.98 711.05 728.33 703.67 C 714.43 693.27 700.25 683.23 686.99 672.01 C 673.60 661.49 661.12 649.89 648.54 638.43 C 639.95 629.64 630.85 621.34 622.86 611.98 C 610.94 599.06 599.77 585.41 589.62 571.05 C 642.07 570.56 694.53 570.88 746.99 570.80 C 763.21 571.72 780.46 564.41 789.29 550.42 C 793.94 544.14 795.78 536.37 797.54 528.90 C 797.91 523.78 798.06 518.57 797.43 513.47 C 796.02 508.11 795.30 502.45 792.41 497.62 C 785.46 481.35 768.71 470.17 751.05 469.72 C 689.76 469.71 628.46 469.74 567.18 469.69 C 561.22 463.65 557.98 455.53 552.18 449.35 C 552.09 448.93 551.91 448.07 551.81 447.64 C 549.72 445.43 548.24 442.74 546.24 440.45 C 546.08 440.04 545.77 439.21 545.61 438.79 C 543.47 436.66 541.99 434.01 540.42 431.47 C 540.31 431.29 540.09 430.92 539.98 430.74 C 540.93 418.28 542.13 405.71 545.78 393.70 C 551.16 374.30 560.71 356.04 573.69 340.64 Z" />
</g>
</svg>
